# File created by Blade
# Date/Time:  Wed Sep 24 19:25:39 2014
# Frame Rate: 120.000 fps
#------------------------------------------------------
:FULLY-SPECIFIED
:DEGREES
3584
root -14.774880 32.184722 -4.425561 10.220543 55.361298 -6.892804
Spine -20.332961 -9.804395 25.097819
Head -12.050943 -22.988776 -1.108766
LeftShoulder -3.848559 12.597450 8.210962
LeftArm 65.042156 54.065350 -42.238529
LeftForeArm 1.849721 0.000000 27.011444
LeftHand -24.084952 -0.000000 -4.567940
LeftHandThumb1 -26.253704 0.000000 33.147579
RightShoulder -19.738939 10.245801 -37.127527
RightArm -21.690011 39.773424 31.461350
RightForeArm 23.626619 -0.000000 129.770443
RightHand -13.714148 -0.000000 -2.154201
RightHandThumb1 -24.326973 -0.000000 -32.862282
LeftUpLeg 1.400878 44.958357 19.354285
LeftLeg 110.092481 -0.000000 -0.000000
LeftFoot 33.701509 23.569030 -21.870035
LeftToeBase 25.448245 -0.000000 -0.000000
RightUpLeg -13.929793 -9.236671 15.145136
RightLeg 1.975106 -0.000000 -0.000000
RightFoot -8.981682 -30.613251 -9.977101
RightToeBase 0.607596 -0.000000 -0.000000
3585
root -14.778272 32.189807 -4.423214 10.348333 55.388869 -6.803993
Spine -20.407039 -9.912272 24.984332
Head -11.857838 -23.045829 -0.985669
LeftShoulder -3.788224 12.586316 8.221565
LeftArm 65.264793 53.981506 -41.997026
LeftForeArm 1.848196 -0.000000 26.934421
LeftHand -24.098200 0.000000 -4.573891
LeftHandThumb1 -26.253704 0.000000 33.147579
RightShoulder -19.721924 10.256037 -37.013479
RightArm -21.813359 39.830025 31.373910
RightForeArm 23.712028 -0.000000 129.802764
RightHand -13.714833 -0.000000 -2.105618
RightHandThumb1 -24.326973 -0.000000 -32.862282
LeftUpLeg 1.609200 44.979959 19.497890
LeftLeg 109.920403 -0.000000 -0.000000
LeftFoot 33.673446 23.616923 -21.959875
LeftToeBase 25.467872 -0.000000 -0.000000
RightUpLeg -14.009285 -9.372241 15.144722
RightLeg 2.002437 -0.000000 -0.000000
RightFoot -9.008289 -30.501125 -9.969864
RightToeBase 0.581046 -0.000000 -0.000000
3586
root -14.783118 32.194764 -4.422372 10.508138 55.419394 -6.696317
Spine -20.503546 -10.037623 24.867819
Head -11.665294 -23.051326 -0.846176
LeftShoulder -3.742383 12.604973 8.247739
LeftArm 65.400893 53.888283 -41.862195
LeftForeArm 1.894157 -0.000000 26.891850
LeftHand -24.053790 0.000000 -4.626285
LeftHandThumb1 -26.253704 0.000000 33.147579
RightShoulder -19.675984 10.276715 -36.885089
RightArm -21.953268 39.864593 31.268282
RightForeArm 23.703939 -0.000000 129.849571
RightHand -13.749120 -0.000000 -2.059548
RightHandThumb1 -24.326973 -0.000000 -32.862282
LeftUpLeg 1.774656 44.983744 19.595506
LeftLeg 109.797299 -0.000000 -0.000000
LeftFoot 33.692079 23.542512 -21.949413
LeftToeBase 25.414565 -0.000000 -0.000000
RightUpLeg -14.064022 -9.390561 15.106897
RightLeg 1.938726 -0.000000 -0.000000
RightFoot -8.985023 -30.487507 -9.943936
RightToeBase 0.604763 -0.000000 -0.000000
3587
root -14.787369 32.199442 -4.421256 10.663919 55.428477 -6.579590
Spine -20.582041 -10.152074 24.739297
Head -11.465402 -23.045487 -0.716780
LeftShoulder -3.668015 12.599244 8.263524
LeftArm 65.559786 53.809699 -41.652503
LeftForeArm 1.820101 -0.000000 26.861317
LeftHand -24.086040 -0.000000 -4.596739
LeftHandThumb1 -26.253704 0.000000 33.147579
RightShoulder -19.645099 10.263635 -36.761818
RightArm -22.054515 39.941077 31.226598
RightForeArm 23.783282 0.000000 129.909732
RightHand -13.717515 0.000000 -1.934261
RightHandThumb1 -24.326973 -0.000000 -32.862282
LeftUpLeg 1.968531 44.998097 19.703695
LeftLeg 109.703348 -0.000000 -0.000000
LeftFoot 33.739334 23.597277 -21.934168
LeftToeBase 25.425649 -0.000000 -0.000000
RightUpLeg -14.113813 -9.404345 15.066049
RightLeg 1.900245 -0.000000 -0.000000
RightFoot -8.941857 -30.497989 -9.966204
RightToeBase 0.624663 -0.000000 -0.000000
3588
root -14.793265 32.204072 -4.421602 10.809456 55.445899 -6.473232
Spine -20.640180 -10.251718 24.608857
Head -11.306571 -23.077236 -0.576026
LeftShoulder -3.607663 12.630071 8.296364
LeftArm 65.803037 53.710274 -41.414123
LeftForeArm 1.727423 -0.000000 26.817948
LeftHand -24.085710 -0.000000 -4.531422
LeftHandThumb1 -26.253704 0.000000 33.147579
RightShoulder -19.658548 10.264054 -36.642597
RightArm -22.089147 39.924835 31.235025
RightForeArm 23.489977 0.000000 129.936852
RightHand -13.774534 -0.000000 -2.161973
RightHandThumb1 -24.326973 -0.000000 -32.862282
LeftUpLeg 2.141433 44.996503 19.792411
LeftLeg 109.660353 -0.000000 -0.000000
LeftFoot 33.789630 23.508561 -21.719022
LeftToeBase 25.805293 -0.000000 -0.000000
RightUpLeg -14.167222 -9.382181 15.010610
RightLeg 1.871252 -0.000000 -0.000000
RightFoot -8.938011 -30.485296 -9.917247
RightToeBase 0.606090 -0.000000 -0.000000
3589
root -14.799053 32.208136 -4.421238 10.941133 55.461053 -6.372949
Spine -20.685925 -10.369986 24.488573
Head -11.169686 -23.088848 -0.442944
LeftShoulder -3.552723 12.638158 8.315665
LeftArm 65.881451 53.616262 -41.326959
LeftForeArm 1.796998 -0.000000 26.816768
LeftHand -24.174978 -0.000000 -4.411248
LeftHandThumb1 -26.253704 0.000000 33.147579
RightShoulder -19.652290 10.193687 -36.516453
RightArm -22.114364 40.041073 31.270154
RightForeArm 23.340304 -0.000000 129.954021
RightHand -13.804561 -0.000000 -2.086501
RightHandThumb1 -24.326973 -0.000000 -32.862282
LeftUpLeg 2.301826 45.002247 19.873840
LeftLeg 109.671391 -0.000000 -0.000000
LeftFoot 33.845915 23.601351 -21.761691
LeftToeBase 25.487317 -0.000000 -0.000000
RightUpLeg -14.209724 -9.378435 14.968032
RightLeg 1.834167 -0.000000 -0.000000
RightFoot -8.909629 -30.485861 -9.904283
RightToeBase 0.583998 -0.000000 -0.000000
3590
root -14.805534 32.212957 -4.425082 11.087126 55.497012 -6.263854
Spine -20.743468 -10.497532 24.390805
Head -11.029752 -23.097006 -0.368149
LeftShoulder -3.530693 12.673940 8.313598
LeftArm 66.184268 53.523997 -41.049806
LeftForeArm 1.734177 0.000000 26.707168
LeftHand -24.009147 -0.000000 -4.304677
LeftHandThumb1 -26.253704 0.000000 33.147579
RightShoulder -19.671773 10.175837 -36.441931
RightArm -22.120657 40.084140 31.350799
RightForeArm 23.144381 -0.000000 129.981683
RightHand -13.874274 -0.000000 -2.293492
RightHandThumb1 -24.326973 -0.000000 -32.862282
LeftUpLeg 2.435204 44.965489 19.908297
LeftLeg 109.728417 -0.000000 -0.000000
LeftFoot 33.800247 23.633248 -21.774280
LeftToeBase 25.622049 -0.000000 -0.000000
RightUpLeg -14.277773 -9.402972 14.924641
RightLeg 1.814645 -0.000000 -0.000000
RightFoot -8.882228 -30.473730 -9.901989
RightToeBase 0.536778 -0.000000 -0.000000
3591
root -14.810547 32.217277 -4.425570 11.188088 55.514504 -6.184764
Spine -20.777302 -10.624833 24.305498
Head -10.894103 -23.081828 -0.281354
LeftShoulder -3.493828 12.713827 8.320012
LeftArm 66.398347 53.422090 -40.821956
LeftForeArm 1.705424 -0.000000 26.697566
LeftHand -24.066667 -0.000000 -4.414291
LeftHandThumb1 -26.253704 0.000000 33.147579
RightShoulder -19.661518 10.156256 -36.355225
RightArm -22.166427 40.177683 31.390061
RightForeArm 23.177839 -0.000000 129.986246
RightHand -13.775915 0.000000 -2.204042
RightHandThumb1 -24.326973 -0.000000 -32.862282
LeftUpLeg 2.626578 44.953795 19.997638
LeftLeg 109.801146 -0.000000 -0.000000
LeftFoot 33.807324 23.793863 -21.742236
LeftToeBase 25.631332 -0.000000 -0.000000
RightUpLeg -14.326075 -9.444637 14.906264
RightLeg 1.809814 -0.000000 -0.000000
RightFoot -8.858854 -30.453027 -9.916323
RightToeBase 0.561086 -0.000000 -0.000000
3592
root -14.817108 32.220865 -4.425832 11.276971 55.515165 -6.123305
Spine -20.796917 -10.735905 24.215195
Head -10.782737 -23.054326 -0.158063
LeftShoulder -3.457604 12.737317 8.344732
LeftArm 66.610890 53.348794 -40.624327
LeftForeArm 1.718216 -0.000000 26.667911
LeftHand -24.079554 -0.000000 -4.267245
LeftHandThumb1 -26.253704 0.000000 33.147579
RightShoulder -19.591324 10.268187 -36.264275
RightArm -22.448990 40.219601 31.194960
RightForeArm 23.216987 -0.000000 130.004355
RightHand -13.767497 -0.000000 -2.107214
RightHandThumb1 -24.326973 -0.000000 -32.862282
LeftUpLeg 2.821071 44.928633 20.112210
LeftLeg 109.922558 -0.000000 -0.000000
LeftFoot 33.926218 23.611948 -21.559852
LeftToeBase 25.557682 -0.000000 -0.000000
RightUpLeg -14.377626 -9.457629 14.890099
RightLeg 1.809719 -0.000000 -0.000000
RightFoot -8.855062 -30.428689 -9.878512
RightToeBase 0.507286 -0.000000 -0.000000
3593
root -14.820365 32.225178 -4.425454 11.380431 55.537923 -6.026812
Spine -20.842367 -10.860905 24.121748
Head -10.593050 -23.055889 -0.127888
LeftShoulder -3.406270 12.763067 8.344361
LeftArm 66.726666 53.260553 -40.495397
LeftForeArm 1.657598 -0.000000 26.661525
LeftHand -24.031554 -0.000000 -4.358236
LeftHandThumb1 -26.253704 0.000000 33.147579
RightShoulder -19.604145 10.199776 -36.181045
RightArm -22.410893 40.339531 31.299911
RightForeArm 23.226070 0.000000 130.010749
RightHand -13.778145 0.000000 -1.971350
RightHandThumb1 -24.326973 -0.000000 -32.862282
LeftUpLeg 3.026389 44.885767 20.181148
LeftLeg 110.078677 -0.000000 -0.000000
LeftFoot 33.758717 23.655453 -21.569641
LeftToeBase 25.755814 -0.000000 -0.000000
RightUpLeg -14.413062 -9.517032 14.857813
RightLeg 1.807618 -0.000000 -0.000000
RightFoot -8.853571 -30.386482 -9.872033
RightToeBase 0.475824 -0.000000 -0.000000
